<svg width="48" height="48" viewBox="0 0 48 48" fill="none" xmlns="http://www.w3.org/2000/svg">
<rect width="48" height="48" rx="6" fill="#D5F5FB"/>
<path d="M22.8969 16.6648C23.0196 16.9088 23.0934 17.1735 23.1146 17.4494L23.6586 25.1333C23.6659 25.2386 23.7158 25.3367 23.7972 25.4059C23.8583 25.4578 23.9333 25.4903 24.0172 25.4997L24.1039 25.5013L31.9077 25.0312C32.5414 24.994 33.1627 25.2145 33.6245 25.6406C34.0863 26.0668 34.3476 26.6606 34.3442 27.3476C33.9971 32.4051 30.2823 36.6331 25.2226 37.7291C20.163 38.825 14.9706 36.5264 12.4809 32.0988C11.8152 30.9574 11.3665 29.7089 11.1593 28.4448L11.093 27.9703C11.0354 27.6149 11.0045 27.256 11 26.9113L11.0044 26.572C11.0188 21.2916 14.7262 16.7256 19.9433 15.4941L20.3014 15.4153L20.494 15.3834C21.5028 15.2455 22.4954 15.7743 22.8969 16.6648ZM20.823 17.3894L20.705 17.4028L20.3852 17.4751C16.2294 18.4767 13.2487 22.0544 13.0831 26.2694L13.0759 26.6125C13.066 26.8736 13.0755 27.1348 13.107 27.4129L13.1459 27.6971C13.285 28.893 13.6711 30.0489 14.2888 31.1081C16.3429 34.7609 20.6134 36.6514 24.7746 35.75C28.9358 34.8487 31.9911 31.3714 32.2742 27.278C32.2742 27.2163 32.2483 27.1573 32.2025 27.115C32.1719 27.0868 32.1343 27.0677 32.0945 27.0591L32.0336 27.0544L24.2427 27.5237C23.5851 27.5704 22.9357 27.3589 22.438 26.936C21.9404 26.5131 21.6356 25.9136 21.5913 25.274L21.0478 17.5966C21.0469 17.5839 21.0434 17.5715 21.0196 17.5222C20.9841 17.4437 20.9071 17.3938 20.823 17.3894ZM26.9922 10.0015C32.9918 10.1712 38.024 14.4823 38.9866 20.2772L39 20.4394L38.9968 20.722C38.9632 21.1387 38.7953 21.535 38.5162 21.8535C38.1658 22.2534 37.6668 22.5001 37.1223 22.5394L27.8187 23.1461C26.6261 23.2135 25.6013 22.3271 25.5237 21.1629L24.9018 12.0288L24.9089 11.8241L24.9398 11.5935C25.0227 11.1847 25.2358 10.8111 25.5495 10.527C25.9435 10.1702 26.4663 9.98125 26.9922 10.0015ZM26.9758 12.0286L27.5915 21.0294C27.5952 21.0841 27.6432 21.1256 27.69 21.123L36.9255 20.5189L36.8796 20.2669C35.9645 15.7123 32.0167 12.3302 27.2802 12.0431L26.9758 12.0286Z" fill="#0CC3E7"/>
</svg>
