<svg width="312" height="226" viewBox="0 0 312 226" fill="none" xmlns="http://www.w3.org/2000/svg">
<rect width="312" height="204" rx="8" fill="#F5F5FB"/>
<mask id="mask0_565_2080" style="mask-type:alpha" maskUnits="userSpaceOnUse" x="0" y="0" width="312" height="204">
<rect width="312" height="204" rx="8" fill="#F5F5FB"/>
</mask>
<g mask="url(#mask0_565_2080)">
<circle cx="298.5" cy="26.5" r="44.5" stroke="#92BE3D" stroke-width="28"/>
<circle cx="13.5" cy="222.5" r="63.5" stroke="#92BE3D" stroke-width="36"/>
</g>
<path d="M236.557 68.2732C228.685 68.7351 225.604 76.935 224.692 78.7828C223.779 80.6307 223.665 82.7095 223.437 84.7884C223.208 86.8672 222.98 88.9461 221.953 90.7939C220.242 93.5657 216.591 95.0671 215.564 98.1853C214.423 101.766 217.275 105.461 216.591 109.157C216.135 111.12 214.765 112.737 214.309 114.701C213.739 116.664 214.309 118.858 215.336 120.706C217.96 125.21 223.208 127.405 228.343 127.636C233.477 127.867 238.497 126.25 243.289 124.748" fill="#263238"/>
<path d="M271.014 78.5519C270.215 80.2842 271.014 82.2476 272.155 83.6335C273.41 85.0194 275.007 85.9433 276.376 87.0982C277.745 88.2531 279.115 89.7545 279.229 91.6024C279.343 93.3347 278.544 94.9516 278.772 96.684C279.343 100.957 286.188 102.343 286.531 106.616C286.759 109.503 283.792 112.16 284.705 114.932C285.048 115.971 285.846 116.779 286.417 117.819C288.356 121.053 286.987 125.557 284.249 128.098C281.396 130.638 277.517 131.562 273.866 131.678C270.672 131.793 267.135 131.331 265.309 128.675C263.598 126.365 263.94 123.131 264.282 120.244C265.88 106.732 265.652 92.9883 265.309 79.3603" fill="#263238"/>
<path d="M238.612 141.148C238.726 133.988 238.612 126.596 238.612 126.596C238.612 126.596 229.598 124.979 227.887 112.968C226.175 101.535 229.028 76.935 229.028 76.935C242.148 71.7379 256.867 73.7013 265.994 84.4419L264.625 142.187C264.511 148.886 258.578 154.083 251.504 153.852C244.316 153.621 238.612 147.962 238.612 141.148Z" fill="#FFBE9D"/>
<path d="M231.424 95.7601C231.424 96.5685 231.994 97.2615 232.907 97.3769C233.706 97.3769 234.39 96.7995 234.504 95.9911C234.504 95.1826 233.934 94.4897 233.021 94.3742C232.222 94.3742 231.538 94.9516 231.424 95.7601Z" fill="#263238"/>
<path d="M229.028 94.6051C229.256 94.8361 230.397 93.9122 231.995 94.0277C235.075 94.4897 234.961 94.9516 234.961 94.7206C235.075 94.6051 234.847 94.2587 234.391 93.9122C233.934 93.5657 233.021 93.1038 231.995 93.1038C230.968 93.1038 230.169 93.4502 229.599 93.7967C229.142 94.1432 228.914 94.4897 229.028 94.6051Z" fill="#263238"/>
<path d="M248.196 96.3375C248.196 97.1459 248.767 97.8389 249.68 97.9544C250.478 97.9544 251.163 97.3769 251.277 96.5685C251.277 95.76 250.706 95.0671 249.794 94.9516C248.881 94.8361 248.196 95.5291 248.196 96.3375Z" fill="#263238"/>
<path d="M246.028 95.1826C246.256 95.4136 247.397 94.4896 248.995 94.6051C250.592 94.6051 251.847 95.4136 251.961 95.2981C252.075 95.1826 251.847 94.8361 251.391 94.4896C250.934 94.1432 250.021 93.6812 248.995 93.6812C247.968 93.6812 247.169 94.0277 246.599 94.3742C246.142 94.7206 245.914 95.0671 246.028 95.1826Z" fill="#263238"/>
<path d="M239.981 107.078C239.981 106.963 238.954 106.847 237.357 106.616C236.9 106.616 236.558 106.501 236.444 106.154C236.33 105.808 236.558 105.346 236.786 104.884C237.243 103.844 237.585 102.805 238.041 101.65C239.753 97.1459 241.122 93.3347 240.894 93.3347C240.666 93.2192 239.182 96.9149 237.357 101.419C236.9 102.574 236.558 103.613 236.102 104.653C235.988 105.115 235.645 105.692 235.874 106.27C235.988 106.616 236.33 106.847 236.558 106.847C236.786 106.963 237.015 106.963 237.243 106.963C238.954 107.078 239.981 107.078 239.981 107.078Z" fill="#263238"/>
<path d="M238.611 126.481C238.611 126.481 246.598 127.058 254.47 122.438C254.47 122.438 250.591 130.638 238.725 129.368L238.611 126.481Z" fill="#EB996E"/>
<path d="M240.666 111.005C241.236 110.196 242.263 109.85 243.29 109.965C243.974 110.081 244.659 110.427 245.115 111.005C245.572 111.582 245.572 112.391 245.229 112.968C244.773 113.546 243.86 113.777 243.062 113.546C242.263 113.315 241.578 112.737 241.008 112.275C240.78 112.16 240.666 111.929 240.552 111.813C240.437 111.467 240.437 111.236 240.666 111.005Z" fill="#EB996E"/>
<path d="M244.773 108.233C244.545 108.233 244.43 109.965 242.947 111.236C241.464 112.506 239.524 112.275 239.524 112.506C239.524 112.622 239.981 112.853 240.779 112.853C241.578 112.853 242.719 112.622 243.632 111.929C244.545 111.12 245.001 110.081 245.001 109.388C245.115 108.695 244.887 108.233 244.773 108.233Z" fill="#263238"/>
<path d="M260.86 75.8956C256.524 82.1321 245.115 88.5996 236.9 89.9855C237.813 88.7151 242.833 85.5968 243.86 84.3264C240.095 87.0982 234.846 90.9094 229.94 91.1404C229.37 91.1404 228.685 91.1404 228.229 90.9094C227.544 90.5629 227.43 89.7545 227.316 89.0616C226.974 86.1743 227.202 81.0927 227.658 78.2054C228.115 75.3181 229.484 72.4309 231.88 70.4675C235.075 68.0422 239.524 67.3493 243.86 67.2338C247.397 67.1183 251.162 67.3493 254.356 68.6197C257.665 69.8901 260.403 72.5463 260.86 75.5491" fill="#263238"/>
<path d="M273.296 103.844C273.867 100.726 274.323 97.8389 274.437 95.8755C274.78 89.7545 273.068 67.0028 252.075 68.7351L251.162 75.2026C251.162 75.2026 247.967 97.3769 261.545 97.4924C261.545 97.4924 262.343 104.075 268.504 110.543C268.39 110.543 271.927 110.427 273.296 103.844Z" fill="#263238"/>
<path d="M261.544 97.4924C262.799 97.2614 264.168 97.2614 265.309 97.8389C266.45 98.3008 267.591 99.2248 268.047 100.38C268.504 101.535 268.504 102.92 268.047 104.191C267.591 105.461 266.792 106.501 265.88 107.425C265.195 108.118 264.511 108.695 263.598 108.926C262.685 109.157 261.658 109.041 260.974 108.464" fill="#FFBE9D"/>
<path d="M262.115 105.346C262 105.346 262.457 106.154 263.712 105.923C264.282 105.808 264.853 105.346 265.195 104.653C265.537 104.075 265.766 103.382 265.88 102.574C265.994 101.766 265.766 100.957 265.423 100.264C264.967 99.6867 264.396 99.2248 263.826 99.2248C262.685 99.2248 262.229 100.033 262.343 100.033C262.457 100.149 262.913 99.6867 263.712 99.9177C264.511 100.033 265.195 101.073 264.967 102.459C264.853 103.729 264.282 104.999 263.598 105.23C262.685 105.577 262.229 105.23 262.115 105.346Z" fill="#EB996E"/>
<path d="M263.826 73.5857C265.423 74.5097 267.363 74.7407 269.188 74.2787C271.014 73.8167 272.611 72.5463 273.524 70.9295C274.094 69.89 274.436 68.6196 274.208 67.4647C273.752 65.8479 272.269 64.8084 270.671 64.3465C268.389 63.769 265.765 64.3465 264.054 65.9633C262.342 67.5802 261.544 70.2365 262.342 72.5463C263.141 74.8561 265.423 76.473 267.819 76.3575" fill="#263238"/>
<path d="M265.766 108.002C264.625 108.811 263.37 109.734 262.457 110.889C261.544 112.044 260.86 113.43 261.088 114.932C261.202 115.74 261.43 116.548 261.316 117.357C261.202 118.512 260.289 119.32 259.605 120.244C258.121 122.669 258.692 126.134 260.631 128.213C262.571 130.292 265.537 131.331 268.39 131.447C270.101 131.447 271.813 131.216 273.182 130.292C275.121 128.906 275.92 126.25 275.92 123.824" fill="#263238"/>
<path d="M267.134 78.3209C267.248 78.3209 266.792 79.2448 265.879 80.5152C264.966 81.7856 263.597 83.4025 261.886 85.0194C260.06 86.5207 258.235 87.6756 256.866 88.3686C255.496 89.0615 254.584 89.2925 254.584 89.2925C254.47 89.0615 258.007 87.6756 261.543 84.5574C264.966 81.4391 267.02 78.2054 267.134 78.3209Z" fill="#455A64"/>
<path d="M269.302 78.2054C269.416 78.2054 269.302 79.3603 268.96 81.0927C268.503 82.825 267.705 85.2504 266.336 87.6757C264.852 90.101 263.255 91.9488 261.886 93.1037C260.517 94.2586 259.604 94.8361 259.49 94.8361C259.376 94.7206 263.027 92.0643 265.879 87.3292C268.617 82.7095 269.074 78.0899 269.302 78.2054Z" fill="#455A64"/>
<path d="M223.665 87.7911C223.893 87.7911 224.121 89.7545 224.692 92.1798C225.376 94.4896 226.175 96.3375 226.061 96.453C225.947 96.5685 224.806 94.8361 224.121 92.4108C223.551 89.87 223.551 87.7911 223.665 87.7911Z" fill="#455A64"/>
<path d="M274.094 128.675C274.094 128.559 274.664 129.252 275.805 129.252C276.376 129.252 277.174 129.137 277.859 128.559C278.544 128.098 279.114 127.289 279.342 126.25C279.57 125.21 279.57 124.055 279.342 122.785C279.114 121.515 278.658 120.244 278.201 118.858C277.745 117.472 277.403 115.855 277.745 114.239C277.973 112.506 279.114 111.12 279.57 109.619C280.141 108.118 279.913 106.385 279.228 105.115C278.544 103.613 277.403 102.689 276.033 102.112C275.349 101.881 274.664 101.535 274.094 101.188C273.523 100.842 272.839 100.38 272.497 99.8022C271.812 98.5318 271.812 97.2614 271.812 96.222C271.812 95.0671 271.926 94.1432 271.698 93.3347C271.47 92.5263 271.242 91.8333 270.785 91.3714C269.987 90.4475 269.188 90.4474 269.302 90.4474C269.302 90.4474 269.53 90.4474 269.758 90.4474C270.101 90.5629 270.557 90.7939 271.013 91.2559C271.47 91.7179 271.812 92.4108 272.04 93.3347C272.268 94.2587 272.268 95.2981 272.268 96.3375C272.268 97.3769 272.268 98.6473 272.953 99.6867C273.638 100.726 274.893 101.188 276.262 101.766C277.631 102.228 279 103.382 279.684 104.884C280.369 106.385 280.711 108.233 280.027 109.85C279.456 111.467 278.429 112.853 278.201 114.354C277.973 115.855 278.315 117.357 278.658 118.743C279.114 120.129 279.57 121.515 279.799 122.785C280.027 124.055 280.027 125.326 279.684 126.481C279.342 127.636 278.772 128.444 277.973 129.021C277.174 129.483 276.376 129.714 275.805 129.599C275.121 129.599 274.664 129.368 274.436 129.137C274.094 128.79 274.094 128.675 274.094 128.675Z" fill="#455A64"/>
<path d="M265.766 127.867C265.766 127.867 265.88 128.213 266.45 128.444C266.907 128.675 268.047 128.675 268.618 127.867C269.188 126.943 269.188 125.557 268.39 124.286C267.705 123.016 266.45 121.745 266.108 119.782C265.88 118.858 266.108 117.819 266.792 117.126C267.363 116.433 268.047 115.971 268.39 115.393C269.303 114.239 269.303 112.853 269.188 111.698C269.074 110.543 268.732 109.734 268.504 109.041C268.276 108.464 268.162 108.118 268.276 108.118C268.276 108.118 268.504 108.464 268.732 109.041C268.96 109.619 269.417 110.543 269.531 111.698C269.759 112.853 269.759 114.47 268.732 115.74C268.276 116.433 267.591 116.895 267.135 117.472C266.678 118.05 266.45 118.858 266.678 119.667C266.907 121.284 268.162 122.554 268.846 124.055C269.531 125.441 269.645 127.174 268.846 128.213C268.504 128.79 267.819 129.021 267.363 129.021C266.907 129.021 266.45 129.021 266.108 128.79C265.766 128.328 265.766 127.867 265.766 127.867Z" fill="#455A64"/>
<path d="M221.04 124.864C221.04 124.864 220.698 124.517 220.127 123.94C219.557 123.247 218.758 122.323 218.188 120.937C217.846 120.244 217.731 119.32 217.731 118.396C217.731 117.472 218.074 116.433 218.758 115.624C219.443 114.816 220.47 114.354 221.154 113.546C221.839 112.737 221.839 111.698 221.611 110.543C221.382 109.503 220.812 108.464 220.356 107.54C219.899 106.616 219.443 105.577 219.215 104.537C218.986 103.498 219.215 102.343 219.785 101.65C220.356 100.842 220.926 100.38 221.497 99.8022C222.637 98.8783 223.322 97.8388 223.436 97.0304C223.55 96.222 223.322 95.76 223.436 95.76C223.436 95.76 223.55 95.8755 223.664 96.1065C223.778 96.3375 223.778 96.6839 223.778 97.1459C223.664 98.0698 222.98 99.2247 221.839 100.264C221.268 100.842 220.698 101.304 220.242 102.112C219.785 102.805 219.557 103.729 219.785 104.653C219.899 105.577 220.356 106.501 220.926 107.54C221.382 108.464 221.953 109.503 222.295 110.774C222.523 111.929 222.523 113.315 221.725 114.239C220.926 115.163 219.899 115.509 219.329 116.317C218.758 117.01 218.416 117.934 218.416 118.743C218.416 119.551 218.53 120.36 218.758 121.053C219.329 122.438 220.013 123.362 220.584 124.055C220.812 124.402 221.154 124.864 221.04 124.864Z" fill="#455A64"/>
<path d="M268.618 75.0871C268.504 75.2026 267.705 73.3548 265.88 72.0844C264.054 70.6985 262.229 70.352 262.229 70.2365C262.229 70.121 264.282 70.121 266.222 71.6224C268.161 73.0083 268.846 75.0871 268.618 75.0871Z" fill="#E8505B"/>
<path d="M270.329 64C270.443 64 270.785 64.462 271.127 65.2704C271.47 66.1943 271.584 67.4647 271.241 68.9661C270.899 70.352 269.986 71.5069 269.302 72.0844C268.617 72.6618 268.047 72.8928 268.047 72.7773C268.047 72.6618 268.503 72.4308 269.074 71.7379C269.644 71.045 270.329 70.121 270.785 68.8506C271.127 67.5802 271.013 66.3098 270.899 65.5014C270.443 64.5775 270.215 64 270.329 64Z" fill="#455A64"/>
<path d="M185.5 204L201.074 167.325L220.698 179.798L207 204C207 204 202.5 204 185.5 204Z" fill="#EB996E"/>
<path d="M217.731 141.379C226.859 136.528 238.611 135.142 238.611 135.142C242.033 142.072 252.872 142.996 259.376 138.261L264.852 134.449C264.852 134.449 265.651 134.449 267.134 134.565C280.027 135.72 290.637 145.421 293.262 158.356C294.174 162.976 294.973 168.404 294.631 173.37C293.946 185.958 281.054 187.113 281.054 187.113C281.054 187.113 280.799 192.952 280 203C273 203 275.121 202.382 268.275 205.5C263.255 207.81 267.812 203 251 203C226.5 203 236.5 203 220 203C221.939 190.989 214.879 187.806 214.651 187.113C214.651 186.998 214.651 186.882 214.651 186.882L201.872 175.333L194.57 169.212C194.684 169.212 210.543 145.306 217.731 141.379Z" fill="#92BE3D"/>
<path d="M233.59 149.117C233.59 149.232 232.449 148.193 230.396 148.193C229.369 148.193 228.114 148.539 227.087 149.348C226.631 149.81 226.174 150.387 225.604 150.965C225.147 151.542 224.463 152.235 223.55 152.351C222.637 152.582 221.725 152.12 221.154 151.658C220.469 151.196 219.899 150.734 219.329 150.387C218.188 149.694 216.933 149.81 216.02 150.041C215.107 150.387 214.423 150.965 214.08 151.427C213.738 151.889 213.624 152.235 213.51 152.12C213.51 152.12 213.51 151.773 213.852 151.196C214.194 150.734 214.765 150.041 215.792 149.579C216.818 149.117 218.302 149.001 219.557 149.81C220.241 150.156 220.812 150.618 221.382 150.965C221.953 151.311 222.637 151.658 223.322 151.542C224.006 151.427 224.577 150.849 225.033 150.387C225.49 149.81 225.946 149.232 226.631 148.77C227.772 147.846 229.141 147.615 230.282 147.615C231.423 147.615 232.221 147.962 232.678 148.308C233.362 148.886 233.59 149.117 233.59 149.117Z" fill="#FAFAFA" fill-opacity="0.8"/>
<path d="M246.597 166.325C246.483 166.441 245.799 165.17 243.859 164.477C242.946 164.131 241.691 164.015 240.436 164.477C239.866 164.708 239.181 165.17 238.611 165.517C237.926 165.863 237.128 166.325 236.215 166.21C235.302 166.094 234.617 165.401 234.161 164.824C233.705 164.246 233.248 163.553 232.792 163.091C231.993 162.052 230.738 161.705 229.711 161.705C228.685 161.705 227.886 162.052 227.43 162.398C226.973 162.745 226.745 162.976 226.631 162.976C226.631 162.976 226.745 162.629 227.201 162.283C227.658 161.936 228.456 161.474 229.597 161.359C230.624 161.243 232.107 161.59 233.134 162.745C233.591 163.322 234.047 163.9 234.503 164.477C234.96 165.055 235.53 165.517 236.215 165.632C236.899 165.748 237.584 165.401 238.268 165.055C238.953 164.708 239.523 164.246 240.208 164.015C241.577 163.553 242.946 163.669 243.973 164.131C245 164.477 245.685 165.17 246.027 165.632C246.483 165.979 246.597 166.325 246.597 166.325Z" fill="#FAFAFA" fill-opacity="0.8"/>
<path d="M275.463 141.148C275.463 141.263 274.208 140.571 272.154 140.917C271.127 141.148 269.987 141.725 269.188 142.765C268.731 143.227 268.503 143.92 268.047 144.613C267.705 145.306 267.134 145.999 266.336 146.461C265.423 146.807 264.51 146.576 263.825 146.345C263.141 146.114 262.456 145.768 261.772 145.537C260.517 145.075 259.262 145.421 258.463 145.999C257.55 146.576 257.094 147.269 256.866 147.731C256.638 148.193 256.523 148.539 256.523 148.539C256.523 148.539 256.523 148.193 256.638 147.615C256.866 147.038 257.322 146.23 258.235 145.652C259.148 145.075 260.517 144.613 262 145.075C262.685 145.306 263.369 145.652 264.054 145.883C264.738 146.114 265.423 146.23 266.107 145.999C266.792 145.768 267.248 145.075 267.591 144.497C267.933 143.804 268.275 143.111 268.731 142.534C269.644 141.379 271.013 140.802 272.04 140.686C273.067 140.455 273.98 140.686 274.55 140.802C275.235 140.917 275.463 141.032 275.463 141.148Z" fill="#FAFAFA" fill-opacity="0.8"/>
<path d="M262.114 160.088C262 160.204 261.543 159.165 260.06 158.587C259.376 158.356 258.349 158.241 257.436 158.472C256.98 158.587 256.523 158.934 255.953 159.165C255.382 159.396 254.812 159.742 254.013 159.627C253.329 159.511 252.758 158.934 252.416 158.472C252.074 158.01 251.731 157.432 251.503 157.086C250.933 156.277 250.02 155.931 249.221 155.931C247.624 155.931 246.939 156.739 246.825 156.739C246.825 156.739 246.939 156.508 247.282 156.162C247.624 155.931 248.308 155.584 249.221 155.584C250.02 155.584 251.161 155.931 251.959 156.855C252.302 157.317 252.644 157.779 252.986 158.241C253.329 158.703 253.671 159.049 254.241 159.165C255.268 159.396 256.295 158.356 257.322 158.125C258.463 157.779 259.49 158.01 260.288 158.356C261.772 158.934 262.228 160.088 262.114 160.088Z" fill="#FAFAFA" fill-opacity="0.8"/>
<path d="M232.678 176.026C232.564 176.142 232.108 175.102 230.625 174.525C229.94 174.294 228.913 174.178 228 174.409C227.544 174.525 227.088 174.871 226.517 175.102C225.947 175.333 225.376 175.68 224.578 175.564C223.893 175.449 223.323 174.871 222.98 174.409C222.638 173.947 222.296 173.37 222.067 173.023C221.497 172.215 220.584 171.869 219.786 171.869C218.188 171.869 217.504 172.677 217.39 172.677C217.39 172.677 217.504 172.446 217.846 172.1C218.188 171.869 218.873 171.522 219.786 171.522C220.584 171.522 221.725 171.869 222.524 172.792C222.866 173.254 223.208 173.716 223.551 174.178C223.893 174.64 224.235 174.987 224.806 175.102C225.833 175.333 226.859 174.294 227.886 174.063C229.027 173.716 230.054 173.947 230.853 174.294C232.45 174.871 232.792 176.026 232.678 176.026Z" fill="#FAFAFA" fill-opacity="0.8"/>
<path d="M260.175 176.373C260.175 176.488 259.376 175.68 257.779 175.68C256.98 175.68 256.068 175.795 255.269 176.488C254.927 176.835 254.47 177.181 254.128 177.643C253.672 178.105 253.215 178.567 252.417 178.683C251.618 178.798 251.047 178.452 250.477 178.105C250.021 177.759 249.564 177.412 249.108 177.066C248.309 176.488 247.282 176.488 246.598 176.719C245.115 177.181 244.658 178.336 244.658 178.221C244.658 178.221 244.658 177.99 244.886 177.528C245.115 177.181 245.685 176.604 246.484 176.257C247.282 175.911 248.423 175.911 249.45 176.488C249.907 176.835 250.363 177.181 250.819 177.528C251.276 177.874 251.732 178.105 252.302 177.99C253.329 177.874 254.014 176.604 254.927 175.911C255.839 175.218 256.98 175.102 257.779 175.102C259.49 175.449 260.289 176.373 260.175 176.373Z" fill="#FAFAFA" fill-opacity="0.8"/>
<path d="M251.161 189.077C251.161 189.192 250.363 188.384 248.765 188.384C247.967 188.384 247.054 188.499 246.255 189.192C245.913 189.539 245.457 189.885 245.114 190.347C244.658 190.809 244.202 191.271 243.403 191.387C242.604 191.502 242.034 191.156 241.463 190.809C241.007 190.463 240.551 190.116 240.094 189.77C239.296 189.192 238.269 189.192 237.584 189.423C236.101 189.885 235.645 191.04 235.645 190.925C235.645 190.925 235.645 190.694 235.873 190.232C236.101 189.885 236.671 189.308 237.47 188.961C238.269 188.615 239.41 188.615 240.436 189.192C240.893 189.539 241.349 189.885 241.806 190.232C242.262 190.578 242.718 190.809 243.289 190.694C244.316 190.578 245 189.308 245.913 188.615C246.826 187.922 247.967 187.806 248.765 187.806C250.477 188.037 251.161 189.077 251.161 189.077Z" fill="#FAFAFA" fill-opacity="0.8"/>
<path d="M180.537 131.793C181.221 132.602 206.322 166.556 206.322 166.556L202.785 168.635L177 135.027L180.537 131.793Z" fill="#263238"/>
<path d="M278.429 155.931C278.429 155.931 254.926 197.046 253.329 197.739C250.248 199.24 214.08 167.595 210.658 164.593C210.201 163.9 209.174 162.629 207.235 159.857C207.235 159.857 204.382 146.692 201.302 147.731C198.221 148.77 203.013 154.429 200.96 159.396C199.02 164.362 189.892 152.466 189.55 151.427L187.268 148.308C187.268 148.308 184.872 155.353 184.986 158.241C185.557 167.711 194.342 178.798 194.342 178.798C194.342 178.798 230.053 224.186 257.208 225.687C264.966 226.149 279.913 203.398 289.154 186.651C294.745 176.488 292.121 166.209 282.879 159.396L278.429 155.931Z" fill="#FFBE9D"/>
<path d="M189.436 160.089C189.322 160.089 188.409 158.703 187.383 156.739C186.47 154.776 185.899 153.159 186.013 153.159C186.128 153.159 186.812 154.776 187.725 156.624C188.638 158.472 189.55 159.973 189.436 160.089Z" fill="#EB996E"/>
<path d="M278.289 144.497C277.376 145.075 255.47 186.189 255.47 186.189L283.651 208.479C283.651 208.479 290.953 190.232 294.832 175.333C295.859 171.291 295.289 160.55 293.805 156.393C286.5 141 288.557 152.004 283.765 148.539L278.289 144.497Z" fill="#92BE3D"/>
<path d="M278.5 204H285.5L286.5 207L283.5 209.5L278 205.5L278.5 204Z" fill="white"/>
<g opacity="0.7">
<path opacity="0.7" d="M285.732 144.035C286.302 144.382 286.53 144.497 286.53 144.497L286.074 144.382C285.96 144.382 285.732 144.151 285.504 144.035C285.392 143.95 285.253 143.866 285.09 143.786C285.331 143.871 285.544 143.959 285.732 144.035Z" fill="black"/>
</g>
<path d="M278.087 183.071C277.973 183.187 277.517 182.147 276.034 181.57C275.349 181.339 274.322 181.223 273.41 181.454C272.953 181.57 272.497 181.916 271.926 182.147C271.356 182.378 270.785 182.725 269.987 182.609C269.302 182.494 268.732 181.916 268.389 181.454C268.047 180.992 267.705 180.415 267.477 180.068C266.906 179.26 265.993 178.914 265.195 178.914C263.597 178.914 262.913 179.722 262.799 179.722C262.799 179.722 262.913 179.491 263.255 179.145C263.597 178.914 264.282 178.567 265.195 178.567C265.993 178.567 267.134 178.914 267.933 179.837C268.275 180.299 268.618 180.761 268.96 181.223C269.302 181.685 269.644 182.032 270.215 182.147C271.242 182.378 272.269 181.339 273.295 181.108C274.436 180.761 275.463 180.992 276.262 181.339C277.859 181.916 278.202 183.071 278.087 183.071Z" fill="#FAFAFA" fill-opacity="0.8"/>
<path d="M290.98 177.759C290.866 177.759 290.638 176.719 289.383 175.795C288.812 175.333 287.899 174.987 286.873 174.987C286.416 174.987 285.846 175.218 285.275 175.333C284.705 175.449 284.02 175.564 283.336 175.218C282.651 174.871 282.309 174.178 282.081 173.601C281.852 173.023 281.738 172.446 281.51 171.984C281.168 171.06 280.369 170.483 279.571 170.252C278.087 169.79 277.061 170.483 277.061 170.367C277.061 170.367 277.175 170.136 277.631 170.021C278.087 169.79 278.772 169.674 279.571 169.905C280.369 170.136 281.396 170.714 281.853 171.869C282.081 172.446 282.195 172.908 282.423 173.485C282.651 174.063 282.879 174.525 283.336 174.756C284.248 175.218 285.504 174.525 286.644 174.525C287.785 174.525 288.812 174.987 289.383 175.564C290.98 176.604 291.094 177.759 290.98 177.759Z" fill="#FAFAFA" fill-opacity="0.8"/>
<path d="M291.665 160.781C291.55 160.781 291.322 159.742 290.067 158.818C289.497 158.356 288.584 158.01 287.557 158.01C287.101 158.01 286.53 158.241 285.96 158.356C285.389 158.472 284.705 158.587 284.02 158.241C283.336 157.894 282.993 157.201 282.765 156.624C282.537 156.046 282.423 155.469 282.195 155.007C281.852 154.083 281.054 153.506 280.255 153.275C278.772 152.813 277.745 153.506 277.745 153.39C277.745 153.39 277.859 153.159 278.316 153.044C278.772 152.813 279.457 152.697 280.255 152.928C281.054 153.159 282.081 153.736 282.537 154.891C282.765 155.469 282.879 155.931 283.108 156.508C283.336 157.086 283.564 157.548 284.02 157.779C284.933 158.241 286.188 157.548 287.329 157.548C288.47 157.548 289.497 158.01 290.067 158.587C291.665 159.627 291.779 160.781 291.665 160.781Z" fill="#FAFAFA" fill-opacity="0.8"/>
<path d="M285.389 199.817C285.275 199.817 285.047 198.778 283.792 197.854C283.221 197.392 282.309 197.046 281.282 197.046C280.825 197.046 280.255 197.277 279.684 197.392C279.114 197.508 278.429 197.623 277.745 197.277C277.06 196.93 276.718 196.237 276.49 195.66C276.262 195.082 276.148 194.505 275.919 194.043C275.577 193.119 274.778 192.541 273.98 192.311C272.497 191.849 271.47 192.541 271.47 192.426C271.47 192.426 271.584 192.195 272.04 192.08C272.497 191.849 273.181 191.733 273.98 191.964C274.778 192.195 275.805 192.772 276.262 193.927C276.49 194.505 276.604 194.967 276.832 195.544C277.06 196.122 277.289 196.584 277.745 196.815C278.658 197.277 279.913 196.584 281.054 196.584C282.195 196.584 283.221 197.046 283.792 197.623C285.503 198.663 285.503 199.933 285.389 199.817Z" fill="#FAFAFA" fill-opacity="0.8"/>
<path d="M38.4964 31.326C38.0938 28.4176 35.8565 26.7301 32.9545 26.7301C29.5348 26.7301 26.9588 29.223 26.9588 33.4545C26.9588 37.6797 29.5028 40.179 32.9545 40.179C36.0675 40.179 38.1321 38.1655 38.4964 35.6662L36.1058 35.6534C35.8054 37.1875 34.5526 38.0504 32.9865 38.0504C30.8643 38.0504 29.343 36.4588 29.343 33.4545C29.343 30.5014 30.8516 28.8587 32.9929 28.8587C34.5845 28.8587 35.831 29.7599 36.1058 31.326H38.4964ZM40.5659 40H42.8798V36.299H44.0112L46.7022 40H49.502L45.8265 35.0014L49.4636 30.1818H46.6767L43.7235 34.1449H42.8798V30.1818H40.5659V40ZM53.6392 40.1982C55.1797 40.1982 56.1001 39.4759 56.522 38.6513H56.5987V40H58.8232V33.429C58.8232 30.8338 56.7074 30.054 54.8345 30.054C52.7699 30.054 51.1847 30.9744 50.6733 32.7642L52.8338 33.071C53.0639 32.3999 53.7159 31.8246 54.8473 31.8246C55.9212 31.8246 56.5092 32.3743 56.5092 33.3395V33.3778C56.5092 34.0426 55.8125 34.0746 54.0803 34.2599C52.1754 34.4645 50.3537 35.0334 50.3537 37.245C50.3537 39.1754 51.7663 40.1982 53.6392 40.1982ZM54.2401 38.4979C53.2749 38.4979 52.5845 38.0568 52.5845 37.2067C52.5845 36.3182 53.358 35.9474 54.3935 35.8004C55.0007 35.7173 56.2152 35.5639 56.5156 35.321V36.478C56.5156 37.571 55.6335 38.4979 54.2401 38.4979ZM69.3509 30.1818H67.1264V34.9759C66.5639 35.1165 66.0078 35.1932 65.4006 35.1932C64.0327 35.1932 63.3615 34.7074 63.3615 33.4418V30.169H61.1499V33.4418C61.1499 35.9474 62.7798 37.0916 65.4006 37.0916C65.9759 37.0916 66.5767 37.0149 67.1264 36.8871V40H69.3509V30.1818ZM74.5044 40.1982C76.0449 40.1982 76.9654 39.4759 77.3873 38.6513H77.464V40H79.6884V33.429C79.6884 30.8338 77.5726 30.054 75.6998 30.054C73.6351 30.054 72.0499 30.9744 71.5385 32.7642L73.699 33.071C73.9292 32.3999 74.5811 31.8246 75.7125 31.8246C76.7864 31.8246 77.3745 32.3743 77.3745 33.3395V33.3778C77.3745 34.0426 76.6777 34.0746 74.9455 34.2599C73.0407 34.4645 71.2189 35.0334 71.2189 37.245C71.2189 39.1754 72.6316 40.1982 74.5044 40.1982ZM75.1053 38.4979C74.1401 38.4979 73.4498 38.0568 73.4498 37.2067C73.4498 36.3182 74.2232 35.9474 75.2587 35.8004C75.8659 35.7173 77.0804 35.5639 77.3809 35.321V36.478C77.3809 37.571 76.4988 38.4979 75.1053 38.4979ZM84.2459 36.8679V30.1818H82.0151V40H84.3993L88.3176 33.3075V40H90.5549V30.1818H88.177L84.2459 36.8679ZM87.5442 26.8068C87.5378 27.4332 87.1799 27.9893 86.2786 27.9893C85.3645 27.9893 85.0194 27.4205 85.0194 26.8068H83.2999C83.2935 28.3026 84.4505 29.3125 86.2786 29.3125C88.1195 29.3125 89.2765 28.3026 89.2765 26.8068H87.5442ZM106.268 31.0895H108.684C108.282 28.5199 106.057 26.7301 103.162 26.7301C99.7354 26.7301 97.1658 29.2486 97.1658 33.4673C97.1658 37.6094 99.6204 40.179 103.232 40.179C106.473 40.179 108.793 38.0952 108.793 34.7202V33.1477H103.481V35.0014H106.498C106.46 36.8679 105.213 38.0504 103.245 38.0504C101.052 38.0504 99.5501 36.4077 99.5501 33.4418C99.5501 30.495 101.078 28.8587 103.194 28.8587C104.772 28.8587 105.846 29.7024 106.268 31.0895ZM110.984 40H113.298V34.228C113.298 32.9815 114.237 32.0994 115.509 32.0994C115.899 32.0994 116.385 32.1697 116.583 32.2337V30.1051C116.372 30.0668 116.008 30.0412 115.752 30.0412C114.627 30.0412 113.688 30.6804 113.33 31.8182H113.227V30.1818H110.984V40ZM122.063 40.1918C124.351 40.1918 125.924 39.0732 126.333 37.3665L124.172 37.1236C123.859 37.9545 123.092 38.3892 122.095 38.3892C120.599 38.3892 119.608 37.4048 119.589 35.7237H126.429V35.0142C126.429 31.5689 124.358 30.054 121.941 30.054C119.129 30.054 117.294 32.1186 117.294 35.1484C117.294 38.2294 119.103 40.1918 122.063 40.1918ZM119.596 34.1641C119.666 32.9112 120.593 31.8565 121.973 31.8565C123.303 31.8565 124.198 32.8281 124.211 34.1641H119.596ZM132.733 40.1918C135.021 40.1918 136.594 39.0732 137.003 37.3665L134.842 37.1236C134.529 37.9545 133.762 38.3892 132.765 38.3892C131.269 38.3892 130.278 37.4048 130.259 35.7237H137.099V35.0142C137.099 31.5689 135.028 30.054 132.611 30.054C129.799 30.054 127.964 32.1186 127.964 35.1484C127.964 38.2294 129.773 40.1918 132.733 40.1918ZM130.265 34.1641C130.336 32.9112 131.263 31.8565 132.643 31.8565C133.973 31.8565 134.868 32.8281 134.881 34.1641H130.265ZM141.37 34.2472C141.37 32.8281 142.227 32.0099 143.447 32.0099C144.643 32.0099 145.359 32.7962 145.359 34.1065V40H147.673V33.7486C147.679 31.3963 146.337 30.054 144.31 30.054C142.84 30.054 141.83 30.7571 141.383 31.8501H141.268V30.1818H139.056V40H141.37V34.2472ZM28.6271 67.6818C30.4297 67.6818 31.4716 66.755 32.0277 65.1889L35.9716 54.1946L33.4979 54.1818L31.2287 61.5966H31.1264L28.8636 54.1818H26.4091L29.9695 64.2045L29.7713 64.7351C29.343 65.8537 28.6655 65.9304 27.6555 65.6364L27.1186 67.4389C27.4318 67.5668 27.9943 67.6818 28.6271 67.6818ZM36.9384 64H39.6678L42.4739 60.0369H42.9853V64H45.2992V60.0369H45.8105L48.6039 64H51.3333L47.7282 58.9311L51.3013 54.1818H48.6294L45.8361 58.1385H45.2992V54.1818H42.9853V58.1385H42.4355L39.6422 54.1818H36.9703L40.5627 58.9311L36.9384 64ZM57.0414 64.1918C59.3297 64.1918 60.9022 63.0732 61.3113 61.3665L59.1507 61.1236C58.8375 61.9545 58.0705 62.3892 57.0733 62.3892C55.5776 62.3892 54.5868 61.4048 54.5676 59.7237H61.4071V59.0142C61.4071 55.5689 59.3361 54.054 56.9199 54.054C54.1074 54.054 52.2729 56.1186 52.2729 59.1484C52.2729 62.2294 54.0819 64.1918 57.0414 64.1918ZM54.574 58.1641C54.6444 56.9112 55.5712 55.8565 56.9519 55.8565C58.2814 55.8565 59.1763 56.8281 59.1891 58.1641H54.574ZM72.1122 64.1918C74.5795 64.1918 76.152 62.728 76.3182 60.6442H74.1065C73.9084 61.6989 73.1477 62.3061 72.1314 62.3061C70.6868 62.3061 69.7536 61.098 69.7536 59.0909C69.7536 57.1094 70.706 55.9205 72.1314 55.9205C73.2436 55.9205 73.9276 56.6364 74.1065 57.5824H76.3182C76.1584 55.4538 74.4964 54.054 72.0994 54.054C69.223 54.054 67.4077 56.1314 67.4077 59.1293C67.4077 62.1016 69.1783 64.1918 72.1122 64.1918ZM82.5648 64.1918C84.8532 64.1918 86.4256 63.0732 86.8347 61.3665L84.6742 61.1236C84.361 61.9545 83.5939 62.3892 82.5968 62.3892C81.101 62.3892 80.1103 61.4048 80.0911 59.7237H86.9306V59.0142C86.9306 55.5689 84.8596 54.054 82.4434 54.054C79.6309 54.054 77.7963 56.1186 77.7963 59.1484C77.7963 62.2294 79.6053 64.1918 82.5648 64.1918ZM80.0975 58.1641C80.1678 56.9112 81.0946 55.8565 82.4753 55.8565C83.8049 55.8565 84.6998 56.8281 84.7125 58.1641H80.0975ZM91.119 60.8679V54.1818H88.8881V64H91.2724L95.1907 57.3075V64H97.4279V54.1818H95.0501L91.119 60.8679ZM94.4173 50.8068C94.4109 51.4332 94.0529 51.9893 93.1516 51.9893C92.2376 51.9893 91.8924 51.4205 91.8924 50.8068H90.1729C90.1665 52.3026 91.3235 53.3125 93.1516 53.3125C94.9925 53.3125 96.1495 52.3026 96.1495 50.8068H94.4173ZM108.005 54.1818H105.781V58.9759C105.218 59.1165 104.662 59.1932 104.055 59.1932C102.687 59.1932 102.016 58.7074 102.016 57.4418V54.169H99.8042V57.4418C99.8042 59.9474 101.434 61.0916 104.055 61.0916C104.63 61.0916 105.231 61.0149 105.781 60.8871V64H108.005V54.1818ZM113.159 64.1982C114.699 64.1982 115.62 63.4759 116.042 62.6513H116.118V64H118.343V57.429C118.343 54.8338 116.227 54.054 114.354 54.054C112.289 54.054 110.704 54.9744 110.193 56.7642L112.353 57.071C112.583 56.3999 113.235 55.8246 114.367 55.8246C115.441 55.8246 116.029 56.3743 116.029 57.3395V57.3778C116.029 58.0426 115.332 58.0746 113.6 58.2599C111.695 58.4645 109.873 59.0334 109.873 61.245C109.873 63.1754 111.286 64.1982 113.159 64.1982ZM113.76 62.4979C112.794 62.4979 112.104 62.0568 112.104 61.2067C112.104 60.3182 112.877 59.9474 113.913 59.8004C114.52 59.7173 115.735 59.5639 116.035 59.321V60.478C116.035 61.571 115.153 62.4979 113.76 62.4979ZM124.952 64.1918C127.419 64.1918 128.992 62.728 129.158 60.6442H126.946C126.748 61.6989 125.988 62.3061 124.971 62.3061C123.527 62.3061 122.593 61.098 122.593 59.0909C122.593 57.1094 123.546 55.9205 124.971 55.9205C126.083 55.9205 126.767 56.6364 126.946 57.5824H129.158C128.998 55.4538 127.336 54.054 124.939 54.054C122.063 54.054 120.248 56.1314 120.248 59.1293C120.248 62.1016 122.018 64.1918 124.952 64.1918ZM133.89 50.9091H131.416L131.621 60.152H133.679L133.89 50.9091ZM132.65 64.1406C133.404 64.1406 134.05 63.5142 134.056 62.7344C134.05 61.9673 133.404 61.3409 132.65 61.3409C131.87 61.3409 131.237 61.9673 131.243 62.7344C131.237 63.5142 131.87 64.1406 132.65 64.1406Z" fill="#011F3B"/>
<circle cx="44" cy="105" r="20" fill="white"/>
<circle cx="100" cy="105" r="20" fill="white"/>
<g clip-path="url(#clip0_565_2080)">
<path d="M38.3896 95.3117C38.1558 95.5455 38 95.9351 38 96.4026V113.623C38 114.091 38.1558 114.481 38.3896 114.714L38.4675 114.792L48.0519 105.13V105.052V104.974L38.3896 95.3117Z" fill="url(#paint0_linear_565_2080)"/>
<path d="M51.3245 108.325L48.0518 105.13V105.052V104.974L51.2466 101.779L51.3245 101.857L55.1427 104.039C56.2336 104.662 56.2336 105.675 55.1427 106.299L51.3245 108.325Z" fill="url(#paint1_linear_565_2080)"/>
<path d="M51.3247 108.325L48.052 105.052L38.3896 114.714C38.7793 115.104 39.3247 115.104 40.026 114.792L51.3247 108.325Z" fill="url(#paint2_linear_565_2080)"/>
<path d="M51.3247 101.701L39.9481 95.2338C39.3247 94.8442 38.7013 94.9221 38.3896 95.3117L48.1299 105.052L51.3247 101.701Z" fill="url(#paint3_linear_565_2080)"/>
<path opacity="0.2" d="M51.3245 108.247L39.9479 114.636C39.3245 115.026 38.7791 114.948 38.3894 114.636L38.3115 114.714L38.3894 114.792C38.7791 115.104 39.3245 115.182 39.9479 114.792L51.3245 108.247Z" fill="black"/>
<path opacity="0.12" d="M38.3896 114.636C38.1558 114.403 38 114.013 38 113.545V113.623C38 114.091 38.1558 114.481 38.3896 114.714V114.636Z" fill="black"/>
<path opacity="0.12" d="M55.1432 106.065L51.2471 108.247L51.325 108.325L55.1432 106.143C55.6886 105.831 55.9224 105.442 55.9224 105.052C55.9224 105.364 55.6886 105.753 55.1432 106.065Z" fill="black"/>
<path opacity="0.25" d="M39.9481 95.3896L55.1429 104.039C55.6104 104.351 55.9221 104.662 55.9221 105.052C55.9221 104.662 55.6883 104.273 55.1429 103.961L39.9481 95.2338C38.8571 94.6104 38 95.1559 38 96.4026V96.4805C38 95.2338 38.8571 94.7662 39.9481 95.3896Z" fill="white"/>
</g>
<g clip-path="url(#clip1_565_2080)">
<path d="M91 105.746C91 105.472 91 105.198 91 104.937C91 104.911 91.0134 104.885 91.0134 104.859C91.0268 104.65 91.0402 104.441 91.0669 104.219C91.1874 103.332 91.4551 102.484 91.9235 101.713C92.6597 100.5 93.7037 99.6644 95.0957 99.2467C95.6579 99.0771 96.2334 98.9988 96.8358 99.0379C97.2507 99.0771 97.6388 99.1684 98.0404 99.299C98.5624 99.4686 99.0844 99.6513 99.6064 99.821C99.9946 99.9515 100.383 99.9776 100.771 99.8341C101.266 99.6513 101.761 99.4947 102.27 99.3251C102.819 99.1423 103.368 99.0118 103.943 98.9727C104.465 98.9335 104.987 99.0118 105.496 99.1162C106.54 99.3381 107.45 99.808 108.173 100.578C108.32 100.735 108.44 100.891 108.574 101.048C108.427 101.152 108.28 101.231 108.146 101.322C107.53 101.753 107.008 102.275 106.66 102.94C106.125 103.971 106.031 105.055 106.299 106.151C106.674 107.691 107.691 108.709 109.15 109.362C109.15 109.375 109.15 109.388 109.15 109.401C109.136 109.427 109.123 109.453 109.11 109.479C108.949 109.871 108.802 110.262 108.628 110.641C108.199 111.58 107.611 112.429 106.955 113.225C106.62 113.643 106.245 114.047 105.804 114.374C105.362 114.687 104.88 114.896 104.331 114.948C103.903 114.974 103.488 114.896 103.086 114.778C102.712 114.661 102.35 114.517 101.976 114.387C101.467 114.217 100.932 114.113 100.383 114.139C99.8206 114.152 99.2852 114.282 98.7632 114.465C98.3482 114.608 97.9333 114.752 97.5184 114.883C97.3578 114.935 97.1838 114.948 97.0231 114.987C96.8625 114.987 96.7153 114.987 96.5547 114.987C96.5413 114.987 96.5413 114.974 96.5279 114.974C96.0728 114.922 95.6713 114.726 95.3099 114.465C94.8682 114.152 94.4934 113.76 94.1454 113.342C92.9943 111.998 92.1377 110.497 91.5889 108.814C91.3078 107.926 91.1071 107.012 91.0268 106.086C91.0268 105.981 91.0134 105.864 91 105.746Z" fill="black"/>
<path d="M104.586 94C104.586 94.2349 104.599 94.4699 104.586 94.7048C104.559 95.3313 104.372 95.9055 104.064 96.4537C103.569 97.3151 102.899 98.0199 102.016 98.5289C101.454 98.8421 100.852 98.9988 100.209 98.9857C100.129 98.9857 100.089 98.9727 100.075 98.8682C100.022 98.1504 100.169 97.4848 100.477 96.8452C101.2 95.3704 102.377 94.4699 103.984 94.0783C104.144 94.0392 104.291 94.0261 104.452 94C104.506 94 104.546 94 104.586 94Z" fill="black"/>
</g>
<defs>
<linearGradient id="paint0_linear_565_2080" x1="47.2159" y1="96.2228" x2="34.1387" y2="109.3" gradientUnits="userSpaceOnUse">
<stop stop-color="#00A0FF"/>
<stop offset="0.00657445" stop-color="#00A1FF"/>
<stop offset="0.2601" stop-color="#00BEFF"/>
<stop offset="0.5122" stop-color="#00D2FF"/>
<stop offset="0.7604" stop-color="#00DFFF"/>
<stop offset="1" stop-color="#00E3FF"/>
</linearGradient>
<linearGradient id="paint1_linear_565_2080" x1="56.5934" y1="105.021" x2="37.7387" y2="105.021" gradientUnits="userSpaceOnUse">
<stop stop-color="#FFE000"/>
<stop offset="0.4087" stop-color="#FFBD00"/>
<stop offset="0.7754" stop-color="#FFA500"/>
<stop offset="1" stop-color="#FF9C00"/>
</linearGradient>
<linearGradient id="paint2_linear_565_2080" x1="49.5749" y1="106.81" x2="31.8412" y2="124.543" gradientUnits="userSpaceOnUse">
<stop stop-color="#FF3A44"/>
<stop offset="1" stop-color="#C31162"/>
</linearGradient>
<linearGradient id="paint3_linear_565_2080" x1="35.9154" y1="89.5733" x2="43.8343" y2="97.4921" gradientUnits="userSpaceOnUse">
<stop stop-color="#32A071"/>
<stop offset="0.0685" stop-color="#2DA771"/>
<stop offset="0.4762" stop-color="#15CF74"/>
<stop offset="0.8009" stop-color="#06E775"/>
<stop offset="1" stop-color="#00F076"/>
</linearGradient>
<clipPath id="clip0_565_2080">
<rect width="18" height="20.026" fill="white" transform="translate(38 95)"/>
</clipPath>
<clipPath id="clip1_565_2080">
<rect width="18.1364" height="21" fill="white" transform="translate(91 94)"/>
</clipPath>
</defs>
</svg>
