<svg width="3845" height="951" viewBox="0 0 3845 951" fill="none" xmlns="http://www.w3.org/2000/svg">
<path fill-rule="evenodd" clip-rule="evenodd" d="M237.75 0C106.444 0 0 106.444 0 237.75V713.25C0 844.556 106.444 951 237.75 951H713.25C844.556 951 951 844.556 951 713.25V237.75C951 106.444 844.556 0 713.25 0H237.75ZM766.632 482.378C766.632 626.865 658.829 746.174 519.268 764.26V648.845C546.968 647.038 596.756 638.868 631.108 605.005C679.945 556.865 676.121 477.94 675.935 474.604C675.387 464.819 667.461 457.005 657.533 456.465C654.15 456.28 574.077 452.511 525.238 500.649C520.042 505.771 515.448 511.244 511.376 516.934C504.221 488.596 490.775 456.935 465.641 432.161C407.306 374.662 311.311 379.182 307.255 379.405C297.328 379.945 289.4 387.759 288.853 397.544C288.629 401.544 284.04 496.163 342.376 553.663C385.114 595.789 448.054 604.624 480.256 606.25V766.624C324.244 765.483 198.125 638.659 198.125 482.378C198.125 325.39 325.39 198.125 482.378 198.125C639.367 198.125 766.632 325.39 766.632 482.378Z" fill="#92BE3D"/>
<path d="M1453.74 420.225H1530.98C1521.15 349.071 1458.48 299 1377.19 299C1282.21 299 1209 367.519 1209 484.176C1209 598.022 1277.47 668.649 1378.77 668.649C1469.54 668.649 1534.32 611.198 1534.32 516.502V471.175H1383.86V528.449H1461.11C1460.06 573.074 1429.68 601.36 1379.12 601.36C1322.06 601.36 1286.07 558.668 1286.07 483.473C1286.07 408.63 1323.47 366.289 1378.42 366.289C1417.57 366.289 1444.08 386.493 1453.74 420.225Z" fill="#92BE3D"/>
<path d="M1590.02 663.729H1664.81V511.056C1664.81 477.851 1689.03 455.011 1722.04 455.011C1732.4 455.011 1746.62 456.768 1753.64 459.052V392.642C1746.97 391.061 1737.67 390.007 1730.12 390.007C1699.92 390.007 1675.17 407.576 1665.33 440.956H1662.52V393.872H1590.02V663.729Z" fill="#92BE3D"/>
<path d="M1902.65 669C1969.37 669 2014.31 636.498 2024.84 586.426L1955.67 581.859C1948.12 602.414 1928.81 613.131 1903.88 613.131C1866.49 613.131 1842.78 588.359 1842.78 548.126V547.951H2026.42V527.395C2026.42 435.686 1970.95 390.358 1899.67 390.358C1820.31 390.358 1768.87 446.754 1768.87 530.03C1768.87 615.591 1819.61 669 1902.65 669ZM1842.78 501.569C1844.36 470.823 1867.71 446.227 1900.9 446.227C1933.38 446.227 1955.85 469.418 1956.02 501.569H1842.78Z" fill="#92BE3D"/>
<path d="M2198.13 669C2264.84 669 2309.78 636.498 2320.32 586.426L2251.15 581.859C2243.6 602.414 2224.28 613.131 2199.35 613.131C2161.96 613.131 2138.26 588.359 2138.26 548.126V547.951H2321.9V527.395C2321.9 435.686 2266.42 390.358 2195.14 390.358C2115.79 390.358 2064.35 446.754 2064.35 530.03C2064.35 615.591 2115.08 669 2198.13 669ZM2138.26 501.569C2139.84 470.823 2163.19 446.227 2196.37 446.227C2228.85 446.227 2251.32 469.418 2251.5 501.569H2138.26Z" fill="#92BE3D"/>
<path d="M2445.49 507.718C2445.67 472.932 2466.39 452.552 2496.58 452.552C2526.61 452.552 2544.69 472.229 2544.51 505.258V663.729H2619.3V491.906C2619.3 429.009 2582.43 390.358 2526.25 390.358C2486.23 390.358 2457.26 410.035 2445.14 441.483H2441.98V393.872H2370.7V663.729H2445.49V507.718Z" fill="#92BE3D"/>
<path d="M2679.65 663.729H2755.67V515.097H2901.92V452.376H2755.67V366.64H2917.72V303.919H2679.65V663.729Z" fill="#92BE3D"/>
<path d="M3040.96 668.824C3080.82 668.824 3106.62 651.431 3119.79 626.308H3121.9V663.729H3192.83V481.716C3192.83 417.414 3138.4 390.358 3078.36 390.358C3013.75 390.358 2971.26 421.279 2960.91 470.472L3030.08 476.094C3035.17 458.174 3051.15 444.997 3078.01 444.997C3103.46 444.997 3118.04 457.822 3118.04 479.959V481.013C3118.04 498.406 3099.6 500.69 3052.73 505.258C2999.35 510.178 2951.43 528.098 2951.43 588.359C2951.43 641.768 2989.52 668.824 3040.96 668.824ZM3062.38 617.172C3039.38 617.172 3022.88 606.455 3022.88 585.899C3022.88 564.817 3040.26 554.451 3066.59 550.762C3082.92 548.478 3109.61 544.613 3118.56 538.639V567.276C3118.56 595.562 3095.21 617.172 3062.38 617.172Z" fill="#92BE3D"/>
<path d="M3250.85 663.729H3325.64V511.056C3325.64 477.851 3349.87 455.011 3382.87 455.011C3393.23 455.011 3407.45 456.768 3414.47 459.052V392.642C3407.8 391.061 3398.5 390.007 3390.95 390.007C3360.75 390.007 3336 407.576 3326.17 440.956H3323.36V393.872H3250.85V663.729Z" fill="#92BE3D"/>
<path d="M3453.14 663.729H3527.93V501.745C3527.93 471.878 3546.89 452.025 3571.82 452.025C3596.4 452.025 3612.91 468.891 3612.91 495.42V663.729H3685.41V498.934C3685.41 470.999 3701.39 452.025 3728.6 452.025C3752.48 452.025 3770.39 466.958 3770.39 497.001V663.729H3845V482.243C3845 423.739 3810.24 390.358 3760.03 390.358C3720.53 390.358 3689.8 410.562 3678.74 441.483H3675.93C3667.33 410.211 3639.77 390.358 3602.72 390.358C3566.38 390.358 3538.82 409.684 3527.58 441.483H3524.42V393.872H3453.14V663.729Z" fill="#92BE3D"/>
</svg>
