<svg width="20" height="18" viewBox="0 0 20 18" fill="none" xmlns="http://www.w3.org/2000/svg">
<path d="M16.9444 17H3C1.89543 17 1 16.1046 1 15V3C1 1.89536 1.89534 1 2.99984 1H3.00493H3.01002H3.01512H3.02021H3.0253H3.03039H3.03548H3.04058H3.04567H3.05077H3.05586H3.06096H3.06605H3.07115H3.07624H3.08134H3.08644H3.09154H3.09663H3.10173H3.10683H3.11193H3.11703H3.12213H3.12723H3.13233H3.13743H3.14253H3.14763H3.15274H3.15784H3.16294H3.16804H3.17315H3.17825H3.18335H3.18846H3.19356H3.19867H3.20377H3.20887H3.21398H3.21908H3.22419H3.2293H3.2344H3.23951H3.24461H3.24972H3.25482H3.25993H3.26504H3.27014H3.27525H3.28036H3.28546H3.29057H3.29568H3.30078H3.30589H3.311H3.31611H3.32121H3.32632H3.33143H3.33653H3.34164H3.34675H3.35186H3.35696H3.36207H3.36718H3.37228H3.37739H3.3825H3.3876H3.39271H3.39782H3.40292H3.40803H3.41314H3.41824H3.42335H3.42846H3.43356H3.43867H3.44377H3.44888H3.45398H3.45909H3.46419H3.4693H3.4744H3.4795H3.48461H3.48971H3.49481H3.49992H3.50502H3.51012H3.51522H3.52033H3.52543H3.53053H3.53563H3.54073H3.54583H3.55093H3.55603H3.56113H3.56623H3.57133H3.57642H3.58152H3.58662H3.59172H3.59681H3.60191H3.607H3.6121H3.61719H3.62229H3.62738H3.63247H3.63757H3.64266H3.64775H3.65284H3.65793H3.66302H3.66811H3.6732H3.67829H3.68338H3.68847H3.69355H3.69864H3.70373H3.70881H3.7139H3.71898H3.72406H3.72915H3.73423H3.73931H3.74439H3.74947H3.75455H3.75963H3.76471H3.76978H3.77486H3.77993H3.78501H3.79008H3.79516H3.80023H3.8053H3.81037H3.81545H3.82052H3.82558H3.83065H3.83572H3.84079H3.84585H3.85092H3.85598H3.86104H3.86611H3.87117H3.87623H3.88129H3.88635H3.89141H3.89646H3.90152H3.90658H3.91163H3.91668H3.92174H3.92679H3.93184H3.93689H3.94194H3.94698H3.95203H3.95708H3.96212H3.96716H3.97221H3.97725H3.98229H3.98733H3.99237H3.9974H4.00244H4.00748H4.01251H4.01754H4.02257H4.02761H4.03263H4.03766H4.04269H4.04772H4.05274H4.05777H4.06279H4.06781H4.07283H4.07785H4.08287H4.08788H4.0929H4.09791H4.10293H4.10794H4.11295H4.11796H4.12297H4.12797H4.13298H4.13798H4.14298H4.14799H4.15299H4.15798H4.16298H4.16798H4.17297H4.17797H4.18296H4.18795H4.19294H4.19793H4.20291H4.2079H4.21288H4.21786H4.22284H4.22782H4.2328H4.23778H4.24275H4.24773H4.2527H4.25767H4.26264H4.2676H4.27257H4.27753H4.2825H4.28746H4.29242H4.29738H4.30233H4.30729H4.31224H4.31719H4.32214H4.32709H4.33204H4.33698H4.34193H4.34687H4.35181H4.35675H4.36168H4.36662H4.37155H4.37648H4.38141H4.38634H4.39127H4.39619H4.40112H4.40604H4.41096H4.41588H4.42079H4.42571H4.43062H4.43553H4.44044H4.44535H4.45025H4.45516H4.46006H4.46496H4.46986H4.47475H4.47965H4.48454H4.48943H4.49432H4.49921H4.50409H4.50897H4.51386H4.51873H4.52361H4.52849H4.53336H4.53823H4.5431H4.54797H4.55283H4.5577H4.56256H4.56742H4.57228H4.57713H4.58198H4.58683H4.59168H4.59653H4.60138H4.60622H4.61106H4.6159H4.62073H4.62557H4.6304H4.63523H4.64006H4.64489H4.64971H4.65453H4.65935H4.66417H4.66898H4.6738H4.67861H4.68341H4.68822H4.69302H4.69783H4.70263H4.70742H4.71222H4.71701H4.7218H4.72659H4.73137H4.73616H4.74094H4.74572H4.75049H4.75527H4.76004H4.76481H4.76958H4.77434H4.7791H4.78386H4.78862H4.79338H4.79813H4.80288H4.80763H4.81237H4.81712H4.82186H4.82659H4.83133H4.83606H4.84079H4.84552H4.85025H4.85497H4.85969H4.86441H4.86913H4.87384H4.87855H4.88326H4.88796H4.89266H4.89736H4.90206H4.90676H4.91145H4.91614H4.92083H4.92551H4.93019H4.93487H4.93955H4.94422H4.94889H4.95356H4.95823H4.96289H4.96755H4.97221H4.97686H4.98151H4.98616H4.99081H4.99545H5.0001H5.00473H5.00937H5.014H5.01863H5.02326H5.02788H5.03251H5.03712H5.04174H5.04635H5.05096H5.05557H5.06017H5.06478H5.06937H5.07397H5.07856H5.08315H5.08774H5.09232H5.0969H5.10148H5.10606H5.11063H5.1152H5.11977H5.12433H5.12889H5.13345H5.138H5.14255H5.1471H5.15165H5.15619H5.16073H5.16526H5.1698H5.17432H5.17885H5.18337H5.1879H5.19241H5.19693H5.20144H5.20595H5.21045H5.21495H5.21945H5.22395H5.22844H5.23293H5.23741H5.2419H5.24638H5.25085H5.25532H5.25979H5.26426H5.26872H5.27318H5.27764H5.28209H5.28654H5.29099H5.29543H5.29987H5.30431H5.30874H5.31317H5.3176H5.32202H5.32644H5.33086H5.33527H5.33968H5.34409H5.34849H5.35289H5.35729H5.36168H5.36607H5.37046H5.37484H5.37922H5.38359H5.38797H5.39234H5.3967H5.40106H5.40542H5.40977H5.41413H5.41847H5.42282H5.42716H5.43149H5.43583H5.44016H5.44448H5.44881H5.45312H5.45744H5.46175H5.46606H5.47036H5.47467H5.47896H5.48326H5.48755H5.49183C5.99767 1 6.47536 1.18973 6.82788 1.52849C7.09633 1.78648 7.36514 2.04776 7.63634 2.31136L7.63723 2.31223C7.90744 2.57487 8.18003 2.83983 8.45298 3.10213C9.19051 3.8109 10.1714 4.18857 11.1763 4.18857H11.1899H11.2034H11.217H11.2305H11.244H11.2575H11.271H11.2844H11.2978H11.3112H11.3246H11.338H11.3514H11.3647H11.378H11.3913H11.4046H11.4178H11.4311H11.4443H11.4575H11.4707H11.4839H11.497H11.5102H11.5233H11.5364H11.5495H11.5625H11.5756H11.5886H11.6016H11.6146H11.6276H11.6406H11.6535H11.6664H11.6794H11.6923H11.7051H11.718H11.7308H11.7437H11.7565H11.7693H11.782H11.7948H11.8075H11.8203H11.833H11.8457H11.8583H11.871H11.8837H11.8963H11.9089H11.9215H11.9341H11.9466H11.9592H11.9717H11.9842H11.9967H12.0092H12.0217H12.0342H12.0466H12.059H12.0714H12.0838H12.0962H12.1086H12.1209H12.1333H12.1456H12.1579H12.1702H12.1825H12.1947H12.207H12.2192H12.2314H12.2436H12.2558H12.268H12.2801H12.2923H12.3044H12.3165H12.3286H12.3407H12.3528H12.3649H12.3769H12.389H12.401H12.413H12.425H12.437H12.4489H12.4609H12.4728H12.4848H12.4967H12.5086H12.5205H12.5323H12.5442H12.556H12.5679H12.5797H12.5915H12.6033H12.6151H12.6269H12.6386H12.6504H12.6621H12.6738H12.6855H12.6972H12.7089H12.7206H12.7323H12.7439H12.7556H12.7672H12.7788H12.7904H12.802H12.8136H12.8251H12.8367H12.8482H12.8598H12.8713H12.8828H12.8943H12.9058H12.9173H12.9287H12.9402H12.9516H12.9631H12.9745H12.9859H12.9973H13.0087H13.0201H13.0314H13.0428H13.0542H13.0655H13.0768H13.0881H13.0994H13.1107H13.122H13.1333H13.1446H13.1558H13.1671H13.1783H13.1895H13.2008H13.212H13.2232H13.2344H13.2455H13.2567H13.2679H13.279H13.2902H13.3013H13.3124H13.3236H13.3347H13.3458H13.3569H13.3679H13.379H13.3901H13.4011H13.4122H13.4232H13.4342H13.4453H13.4563H13.4673H13.4783H13.4893H13.5002H13.5112H13.5222H13.5331H13.5441H13.555H13.566H13.5769H13.5878H13.5987H13.6096H13.6205H13.6314H13.6423H13.6532H13.664H13.6749H13.6857H13.6966H13.7074H13.7182H13.7291H13.7399H13.7507H13.7615H13.7723H13.7831H13.7939H13.8047H13.8154H13.8262H13.8369H13.8477H13.8584H13.8692H13.8799H13.8906H13.9014H13.9121H13.9228H13.9335H13.9442H13.9549H13.9656H13.9763H13.9869H13.9976H14.0083H14.0189H14.0296H14.0403H14.0509H14.0615H14.0722H14.0828H14.0934H14.1041H14.1147H14.1253H14.1359H14.1465H14.1571H14.1677H14.1783H14.1889H14.1994H14.21H14.2206H14.2311H14.2417H14.2523H14.2628H14.2734H14.2839H14.2945H14.305H14.3156H14.3261H14.3366H14.3471H14.3577H14.3682H14.3787H14.3892H14.3997H14.4102H14.4207H14.4312H14.4417H14.4522H14.4627H14.4732H14.4837H14.4942H14.5047H14.5151H14.5256H14.5361H14.5466H14.557H14.5675H14.578H14.5884H14.5989H14.6093H14.6198H14.6303H14.6407H14.6512H14.6616H14.6721H14.6825H14.6929H14.7034H14.7138H14.7243H14.7347H14.7451H14.7556H14.766H14.7765H14.7869H14.7973H14.8078H14.8182H14.8286H14.839H14.8495H14.8599H14.8703H14.8807H14.8912H14.9016H14.912H14.9225H14.9329H14.9433H14.9537H14.9642H14.9746H14.985H14.9954H15.0058H15.0163H15.0267H15.0371H15.0476H15.058H15.0684H15.0788H15.0893H15.0997H15.1101H15.1206H15.131H15.1414H15.1519H15.1623H15.1727H15.1832H15.1936H15.204H15.2145H15.2249H15.2354H15.2458H15.2563H15.2667H15.2772H15.2876H15.2981H15.3085H15.319H15.3294H15.3399H15.3504H15.3608H15.3713H15.3818H15.3922H15.4027H15.4132H15.4237H15.4342H15.4447H15.4551H15.4656H15.4761H15.4866H15.4971H15.5076H15.5181H15.5286H15.5392H15.5497H15.5602H15.5707H15.5812H15.5918H15.6023H15.6128H15.6234H15.6339H15.6445H15.655H15.6656H15.6761H15.6867H15.6973H15.7078H15.7184H15.729H15.7396H15.7502H15.7607H15.7713H15.7819H15.7925H15.8032H15.8138H15.8244H15.835H15.8456H15.8563H15.8669H15.8776H15.8882H15.8989H15.9095H15.9202H15.9309H15.9415H15.9522H15.9629H15.9736H15.9843H15.995H16.0057H16.0164H16.0271H16.0379H16.0486H16.0593H16.0701H16.0808H16.0916H16.1024H16.1131H16.1239H16.1347H16.1455H16.1563H16.1671H16.1779H16.1887H16.1995H16.2104H16.2212H16.232H16.2429H16.2537H16.2646H16.2755H16.2864H16.2972H16.3081H16.319H16.3299H16.3409H16.3518H16.3627H16.3737H16.3846H16.3956H16.4065H16.4175H16.4285H16.4395H16.4504H16.4615H16.4725H16.4835H16.4945H16.5055H16.5166H16.5276H16.5387H16.5498H16.5609H16.5719H16.583H16.5941H16.6053H16.6164H16.6275H16.6387H16.6498H16.661H16.6721H16.6833H16.6945H16.7057H16.7169H16.7281H16.7393H16.7506H16.7618H16.7731H16.7843H16.7956H16.8069H16.8182H16.8295H16.8408H16.8521H16.8635H16.8748H16.8862H16.8975H16.9089H16.9203C18.0248 4.18857 18.9206 5.08376 18.9214 6.18894C18.9235 8.99362 18.931 12.1413 18.9586 14.9545C18.9696 16.0817 18.0618 17 16.9444 17Z" stroke="#92BE3D" stroke-width="2" stroke-miterlimit="10"/>
</svg>
