<svg width="22" height="22" viewBox="0 0 22 22" fill="none" xmlns="http://www.w3.org/2000/svg">
<path d="M20.5447 9.68406L18.9123 9.33981C18.7124 9.29539 18.5458 9.13992 18.4903 8.94003C18.3126 8.30705 18.0683 7.69628 17.7463 7.12993C17.6463 6.95225 17.6463 6.73015 17.7685 6.55247L18.6791 5.15325C18.8234 4.93115 18.7901 4.64242 18.6013 4.45364L17.5242 3.37646C17.3354 3.18767 17.0466 3.16546 16.8245 3.29872L15.4253 4.22043C15.2476 4.33148 15.0255 4.34259 14.8479 4.24264C14.2815 3.9206 13.6707 3.66519 13.0378 3.49861C12.8379 3.44309 12.6824 3.27651 12.638 3.07662L12.3048 1.4442C12.2493 1.18878 12.0161 1 11.7607 1H10.2282C9.97279 1 9.73959 1.18878 9.68406 1.4442L9.33981 3.07662C9.29539 3.27651 9.15103 3.44309 8.95114 3.49861C8.31816 3.66519 7.70739 3.9206 7.14103 4.24264C6.96335 4.34259 6.73015 4.34259 6.56358 4.22043L5.16435 3.30983C4.94225 3.16546 4.65353 3.19878 4.46474 3.38756L3.38756 4.46474C3.19878 4.65353 3.16546 4.94225 3.30983 5.16435L4.22043 6.56358C4.33148 6.74125 4.34259 6.96335 4.24264 7.14103C3.9206 7.70738 3.66519 8.31816 3.49861 8.95114C3.44309 9.15103 3.27651 9.29539 3.07662 9.33981L1.4442 9.68406C1.18878 9.73959 1 9.96169 1 10.2282V11.7607C1 12.0272 1.18878 12.2493 1.4442 12.3048L3.07662 12.6491C3.27651 12.6935 3.44309 12.849 3.49861 13.0489C3.67629 13.6818 3.9206 14.2926 4.24264 14.859C4.34259 15.0366 4.34259 15.2587 4.22043 15.4364L3.30983 16.8356C3.16546 17.0577 3.19878 17.3465 3.38756 17.5353L4.46474 18.6124C4.65353 18.8012 4.94225 18.8234 5.16435 18.6902L6.56358 17.7796C6.74125 17.6685 6.96335 17.6574 7.14103 17.7574C7.70739 18.0794 8.31816 18.3348 8.95114 18.5014C9.15103 18.5569 9.3065 18.7235 9.35092 18.9234L9.69517 20.5558C9.73959 20.8001 9.97279 20.9889 10.2282 20.9889H11.7607C12.0272 20.9889 12.2493 20.8001 12.3048 20.5447L12.6491 18.9123C12.6935 18.7124 12.849 18.5458 13.0489 18.4903C13.6818 18.3126 14.2926 18.0683 14.859 17.7463C15.0366 17.6463 15.2587 17.6463 15.4364 17.7685L16.8356 18.6791C17.0577 18.8234 17.3465 18.7901 17.5353 18.6013L18.6124 17.5242C18.8012 17.3354 18.8234 17.0466 18.6902 16.8245L17.7796 15.4253C17.6685 15.2476 17.6574 15.0255 17.7574 14.8479C18.0794 14.2815 18.3348 13.6707 18.5014 13.0378C18.5569 12.8379 18.7235 12.6824 18.9234 12.638L20.5558 12.2937C20.8112 12.2382 21 12.0161 21 11.7496V10.2282C20.9889 9.96169 20.8001 9.73959 20.5447 9.68406ZM10.9944 14.3259C9.15103 14.3259 7.66296 12.8379 7.66296 10.9944C7.66296 9.15103 9.15103 7.66296 10.9944 7.66296C12.8379 7.66296 14.3259 9.15103 14.3259 10.9944C14.3259 12.8379 12.8379 14.3259 10.9944 14.3259Z" stroke="#92BE3D" stroke-width="2"/>
</svg>
