<svg width="192" height="274" viewBox="0 0 192 274" fill="none" xmlns="http://www.w3.org/2000/svg">
<rect y="42" width="192" height="232" rx="12" fill="#F7FBF5"/>
<path d="M52.0192 143.182C52.0192 139.46 49.7919 137.205 46.7805 137.205C43.7578 137.205 41.5362 139.46 41.5362 143.182C41.5362 146.898 43.7578 149.159 46.7805 149.159C49.7919 149.159 52.0192 146.903 52.0192 143.182ZM50.2805 143.182C50.2805 146.017 48.7805 147.557 46.7805 147.557C44.7749 147.557 43.2805 146.017 43.2805 143.182C43.2805 140.347 44.7749 138.807 46.7805 138.807C48.7805 138.807 50.2805 140.347 50.2805 143.182ZM60.8047 137.023C60.3786 137.364 59.7308 137.364 58.8274 137.358C58.5604 137.358 58.2706 137.358 57.9524 137.364C55.1229 137.42 53.6911 139.432 53.6911 143.42V144.284C53.6911 147.489 55.282 149.176 57.7195 149.176C60.157 149.176 61.7365 147.483 61.7365 144.767C61.7365 142.085 60.1854 140.602 58.0831 140.602C56.8161 140.602 55.7592 141.142 55.1911 142.222H55.0831C55.2763 140.011 56.1058 138.915 57.9922 138.858C59.6683 138.807 60.7308 138.812 61.5092 138.097L60.8047 137.023ZM57.7251 147.75C56.282 147.75 55.4013 146.597 55.4013 144.795C55.424 143.028 56.2933 142.017 57.7081 142.017C59.1456 142.017 60.0206 143.028 60.0206 144.795C60.0206 146.602 59.1456 147.75 57.7251 147.75ZM65.299 140.273H63.6342V149H65.299V145.375H69.0774V149H70.7365V140.273H69.0774V143.903H65.299V140.273ZM76.6854 149.176C79.1456 149.176 80.7536 147.375 80.7536 144.676C80.7536 141.96 79.1456 140.159 76.6854 140.159C74.2251 140.159 72.6172 141.96 72.6172 144.676C72.6172 147.375 74.2251 149.176 76.6854 149.176ZM76.6911 147.75C75.0831 147.75 74.3331 146.347 74.3331 144.67C74.3331 143 75.0831 141.58 76.6911 141.58C78.2876 141.58 79.0376 143 79.0376 144.67C79.0376 146.347 78.2876 147.75 76.6911 147.75ZM82.6499 149H86.8203C88.7294 149 89.8487 148.034 89.8487 146.648C89.8487 145.352 88.8544 144.557 87.6896 144.42C88.7635 144.216 89.4737 143.625 89.4737 142.602C89.4737 141.17 88.2351 140.273 86.2692 140.273H82.6499V149ZM84.2464 147.58V145.153H86.8203C87.6612 145.153 88.1669 145.648 88.1669 146.46C88.1669 147.153 87.6612 147.58 86.8203 147.58H84.2464ZM84.2464 143.909V141.71H86.2692C87.2351 141.71 87.8203 142.114 87.8203 142.784C87.8203 143.483 87.2408 143.909 86.2862 143.909H84.2464ZM93.3771 146.619V140.273H91.7124V149H93.5589L97.3885 142.648V149H99.0533V140.273H97.2237L93.3771 146.619ZM105.013 149.176C107.076 149.176 108.411 147.938 108.599 146.239H106.945C106.729 147.182 105.996 147.739 105.025 147.739C103.587 147.739 102.661 146.54 102.661 144.636C102.661 142.767 103.604 141.591 105.025 141.591C106.104 141.591 106.763 142.273 106.945 143.091H108.599C108.417 141.33 106.979 140.159 104.996 140.159C102.536 140.159 100.945 142.011 100.945 144.676C100.945 147.307 102.479 149.176 105.013 149.176ZM112.08 143.273V140.273H110.415V149H114.228C116.364 149 117.558 147.761 117.558 146.119C117.558 144.443 116.364 143.273 114.228 143.273H112.08ZM112.08 144.739H114.228C115.205 144.739 115.904 145.33 115.904 146.17C115.904 146.966 115.205 147.534 114.228 147.534H112.08V144.739ZM122.844 151.517H124.526V149H130.612V151.517H132.271V147.528H130.93V140.273H124.998L124.725 143.528C124.543 145.727 124.276 146.875 123.555 147.528H122.844V151.517ZM125.373 147.528C125.952 146.716 126.168 145.364 126.339 143.528L126.521 141.727H129.271V147.528H125.373ZM133.244 149H133.789C135.692 149 136.391 147.591 136.528 144.705L136.664 141.739H139.516V149H141.181V140.273H135.09L134.937 144.136C134.829 146.83 134.522 147.528 133.55 147.528H133.238L133.244 149ZM148.651 149H150.248V140.273H146.56C144.549 140.273 143.322 141.312 143.322 142.955C143.322 144.102 143.924 144.949 144.964 145.341L142.924 149H144.663L146.566 145.585H148.651V149ZM148.651 144.21H146.447C145.521 144.21 144.981 143.722 144.987 142.977C144.981 142.227 145.566 141.722 146.56 141.722H148.651V144.21ZM55.0206 174.273C56.424 174.273 57.3104 173.54 57.8161 172.165L61.424 162.29L59.5888 162.273L57.3786 169.045H57.2876L55.0774 162.273H53.2592L56.4524 171.114L56.2422 171.693C55.8104 172.852 55.2024 172.949 54.2706 172.693L53.8615 174.085C54.0661 174.176 54.5092 174.273 55.0206 174.273ZM61.6186 171H62.1641C64.0675 171 64.7663 169.591 64.9027 166.705L65.0391 163.739H67.8913V171H69.5561V162.273H63.4652L63.3118 166.136C63.2038 168.83 62.897 169.528 61.9254 169.528H61.6129L61.6186 171ZM72.5831 174.273C73.9865 174.273 74.8729 173.54 75.3786 172.165L78.9865 162.29L77.1513 162.273L74.9411 169.045H74.8501L72.6399 162.273H70.8217L74.0149 171.114L73.8047 171.693C73.3729 172.852 72.7649 172.949 71.8331 172.693L71.424 174.085C71.6286 174.176 72.0717 174.273 72.5831 174.273ZM87.3274 162.273H85.6683V166.619C85.0945 166.773 84.5149 166.864 83.8501 166.864C82.6911 166.864 81.9751 166.341 81.9751 165.108V162.256H80.3217V165.108C80.3217 167.29 81.6911 168.33 83.8501 168.33C84.5092 168.33 85.1115 168.239 85.6683 168.097V171H87.3274V162.273ZM89.5874 162.273V171H100.616V162.273H98.951V169.528H95.9339V162.273H94.2692V169.528H91.2521V162.273H89.5874ZM106.646 171.176C108.549 171.176 109.896 170.239 110.282 168.818L108.674 168.528C108.367 169.352 107.629 169.773 106.663 169.773C105.208 169.773 104.231 168.83 104.185 167.148H110.39V166.545C110.39 163.392 108.504 162.159 106.526 162.159C104.094 162.159 102.492 164.011 102.492 166.693C102.492 169.403 104.072 171.176 106.646 171.176ZM104.191 165.875C104.259 164.636 105.157 163.562 106.538 163.562C107.856 163.562 108.719 164.54 108.725 165.875H104.191ZM113.94 162.273H112.275V171H113.94V167.375H117.718V171H119.377V162.273H117.718V165.903H113.94V162.273ZM123.315 168.619V162.273H121.65V171H123.496L127.326 164.648V171H128.991V162.273H127.161L123.315 168.619ZM136.479 171H138.076V162.273H134.388C132.377 162.273 131.15 163.312 131.15 164.955C131.15 166.102 131.752 166.949 132.792 167.341L130.752 171H132.491L134.394 167.585H136.479V171ZM136.479 166.21H134.275C133.349 166.21 132.809 165.722 132.815 164.977C132.809 164.227 133.394 163.722 134.388 163.722H136.479V166.21Z" fill="#778DAD"/>
<g clip-path="url(#clip0_565_1920)">
<path d="M55 95.8889V45.1568C55 43.0314 56.743 41.3065 58.8905 41.3065H118.275V76.9452L55 95.8889Z" fill="#5E801D"/>
<path d="M59.6064 18.2044V79.7175H122.477V27.7533H113.202C110.868 27.7533 109 25.8743 109 23.5949V15.2166H62.6255C60.9448 15.2166 59.6064 16.5719 59.6064 18.2044Z" fill="#E8FFE8"/>
<path d="M58.8281 99H123.94C125.62 99 127.114 97.8911 127.612 96.3202L139.813 56.2458C140.56 53.8124 138.724 51.379 136.14 51.379H103.771C102.246 51.379 100.877 52.2722 100.254 53.6584L98.5114 57.6011C97.8889 58.9872 96.4883 59.9113 94.9632 59.8805C85.9995 59.7881 77.0357 59.6957 68.0409 59.6033C66.329 59.5725 64.804 60.7122 64.3371 62.3447C61.2558 72.9409 58.2056 83.5678 55.1243 94.164C54.4396 96.5974 56.2759 99 58.8281 99Z" fill="#92BE3D"/>
<path d="M109 15.2166V24.7038C109 26.3671 110.37 27.7225 112.051 27.7225H122.477L109 15.2166Z" fill="#92BE3D"/>
<path d="M113.918 34.0678H68.3213C67.9167 34.0678 67.6055 33.7598 67.6055 33.3594C67.6055 32.9589 67.9167 32.6509 68.3213 32.6509H113.918C114.323 32.6509 114.634 32.9589 114.634 33.3594C114.665 33.7598 114.323 34.0678 113.918 34.0678Z" fill="#92BE3D"/>
<path d="M113.918 41.3065H68.3213C67.9167 41.3065 67.6055 40.9984 67.6055 40.598C67.6055 40.1976 67.9167 39.8895 68.3213 39.8895H113.918C114.323 39.8895 114.634 40.1976 114.634 40.598C114.665 40.9984 114.323 41.3065 113.918 41.3065Z" fill="#92BE3D"/>
<path d="M97.578 48.1755H68.1968C67.8856 48.1755 67.6055 47.9291 67.6055 47.5902V47.313C67.6055 47.005 67.8545 46.7278 68.1968 46.7278H97.578C97.8893 46.7278 98.1694 46.9742 98.1694 47.313V47.5902C98.1694 47.9291 97.8893 48.1755 97.578 48.1755Z" fill="#92BE3D"/>
<rect x="118" y="1" width="2" height="14" rx="1" fill="#92BE3D"/>
<rect x="133.673" y="4" width="2" height="14" rx="1" transform="rotate(43.703 133.673 4)" fill="#92BE3D"/>
<rect x="138" y="20" width="2" height="14" rx="1" transform="rotate(90 138 20)" fill="#92BE3D"/>
</g>
<defs>
<clipPath id="clip0_565_1920">
<rect width="85" height="99" fill="white" transform="translate(55)"/>
</clipPath>
</defs>
</svg>
